# MagicaVoxel @ Ephtracy

# group
o RoadSign-66

# material
mtllib Free Sample-8-RoadSign-66.mtl
usemtl palette

# normals
vn 0 0 -1
vn 0 0 1
vn -1 0 0
vn 1 0 0
vn 0 -1 0
vn 0 1 0

# texcoords
vt 0.0175781 0.5
vt 0.244141 0.5
vt 0.384766 0.5

# verts
v 0.74 0 -0.82
v 0.82 0 -0.82
v 0.74 0.02 -0.82
v 0.82 0.02 -0.82
v 0.76 0.02 -0.8
v 0.8 0.02 -0.8
v 0.76 0.98 -0.8
v 0.8 0.98 -0.8
v 0.68 0.78 -0.78
v 0.76 0.78 -0.78
v 0.8 0.78 -0.78
v 0.88 0.78 -0.78
v 0.68 0.8 -0.78
v 0.76 0.8 -0.78
v 0.8 0.8 -0.78
v 0.88 0.8 -0.78
v 0.68 0.92 -0.78
v 0.76 0.92 -0.78
v 0.8 0.92 -0.78
v 0.88 0.92 -0.78
v 0.68 0.94 -0.78
v 0.76 0.94 -0.78
v 0.8 0.94 -0.78
v 0.88 0.94 -0.78
v 0.7 0.68 -0.76
v 0.76 0.68 -0.76
v 0.8 0.68 -0.76
v 0.86 0.68 -0.76
v 0.68 0.7 -0.76
v 0.7 0.7 -0.76
v 0.76 0.7 -0.76
v 0.8 0.7 -0.76
v 0.86 0.7 -0.76
v 0.88 0.7 -0.76
v 0.66 0.72 -0.76
v 0.68 0.72 -0.76
v 0.7 0.72 -0.76
v 0.86 0.72 -0.76
v 0.88 0.72 -0.76
v 0.9 0.72 -0.76
v 0.64 0.74 -0.76
v 0.66 0.74 -0.76
v 0.68 0.74 -0.76
v 0.88 0.74 -0.76
v 0.9 0.74 -0.76
v 0.92 0.74 -0.76
v 0.62 0.76 -0.76
v 0.64 0.76 -0.76
v 0.66 0.76 -0.76
v 0.9 0.76 -0.76
v 0.92 0.76 -0.76
v 0.94 0.76 -0.76
v 0.6 0.78 -0.76
v 0.62 0.78 -0.76
v 0.64 0.78 -0.76
v 0.68 0.78 -0.76
v 0.76 0.78 -0.76
v 0.8 0.78 -0.76
v 0.88 0.78 -0.76
v 0.92 0.78 -0.76
v 0.94 0.78 -0.76
v 0.96 0.78 -0.76
v 0.68 0.8 -0.76
v 0.76 0.8 -0.76
v 0.8 0.8 -0.76
v 0.88 0.8 -0.76
v 0.68 0.92 -0.76
v 0.76 0.92 -0.76
v 0.8 0.92 -0.76
v 0.88 0.92 -0.76
v 0.6 0.94 -0.76
v 0.62 0.94 -0.76
v 0.64 0.94 -0.76
v 0.68 0.94 -0.76
v 0.76 0.94 -0.76
v 0.8 0.94 -0.76
v 0.88 0.94 -0.76
v 0.92 0.94 -0.76
v 0.94 0.94 -0.76
v 0.96 0.94 -0.76
v 0.62 0.96 -0.76
v 0.64 0.96 -0.76
v 0.66 0.96 -0.76
v 0.9 0.96 -0.76
v 0.92 0.96 -0.76
v 0.94 0.96 -0.76
v 0.64 0.98 -0.76
v 0.66 0.98 -0.76
v 0.68 0.98 -0.76
v 0.76 0.98 -0.76
v 0.8 0.98 -0.76
v 0.88 0.98 -0.76
v 0.9 0.98 -0.76
v 0.92 0.98 -0.76
v 0.66 1 -0.76
v 0.68 1 -0.76
v 0.7 1 -0.76
v 0.86 1 -0.76
v 0.88 1 -0.76
v 0.9 1 -0.76
v 0.68 1.02 -0.76
v 0.7 1.02 -0.76
v 0.86 1.02 -0.76
v 0.88 1.02 -0.76
v 0.7 1.04 -0.76
v 0.86 1.04 -0.76
v 0.76 0.02 -0.76
v 0.8 0.02 -0.76
v 0.76 0.68 -0.76
v 0.8 0.68 -0.76
v 0.74 0 -0.74
v 0.82 0 -0.74
v 0.74 0.02 -0.74
v 0.82 0.02 -0.74
v 0.7 0.68 -0.72
v 0.86 0.68 -0.72
v 0.68 0.7 -0.72
v 0.7 0.7 -0.72
v 0.86 0.7 -0.72
v 0.88 0.7 -0.72
v 0.66 0.72 -0.72
v 0.68 0.72 -0.72
v 0.7 0.72 -0.72
v 0.86 0.72 -0.72
v 0.88 0.72 -0.72
v 0.9 0.72 -0.72
v 0.64 0.74 -0.72
v 0.66 0.74 -0.72
v 0.68 0.74 -0.72
v 0.88 0.74 -0.72
v 0.9 0.74 -0.72
v 0.92 0.74 -0.72
v 0.62 0.76 -0.72
v 0.64 0.76 -0.72
v 0.66 0.76 -0.72
v 0.9 0.76 -0.72
v 0.92 0.76 -0.72
v 0.94 0.76 -0.72
v 0.6 0.78 -0.72
v 0.62 0.78 -0.72
v 0.64 0.78 -0.72
v 0.92 0.78 -0.72
v 0.94 0.78 -0.72
v 0.96 0.78 -0.72
v 0.64 0.8 -0.72
v 0.7 0.8 -0.72
v 0.74 0.8 -0.72
v 0.76 0.8 -0.72
v 0.78 0.8 -0.72
v 0.84 0.8 -0.72
v 0.86 0.8 -0.72
v 0.88 0.8 -0.72
v 0.64 0.82 -0.72
v 0.68 0.82 -0.72
v 0.8 0.82 -0.72
v 0.82 0.82 -0.72
v 0.88 0.84 -0.72
v 0.92 0.84 -0.72
v 0.64 0.86 -0.72
v 0.68 0.86 -0.72
v 0.88 0.86 -0.72
v 0.9 0.86 -0.72
v 0.66 0.88 -0.72
v 0.7 0.88 -0.72
v 0.66 0.9 -0.72
v 0.7 0.9 -0.72
v 0.72 0.9 -0.72
v 0.74 0.9 -0.72
v 0.76 0.9 -0.72
v 0.78 0.9 -0.72
v 0.8 0.9 -0.72
v 0.82 0.9 -0.72
v 0.88 0.9 -0.72
v 0.9 0.9 -0.72
v 0.64 0.92 -0.72
v 0.7 0.92 -0.72
v 0.72 0.92 -0.72
v 0.84 0.92 -0.72
v 0.86 0.92 -0.72
v 0.92 0.92 -0.72
v 0.6 0.94 -0.72
v 0.62 0.94 -0.72
v 0.64 0.94 -0.72
v 0.92 0.94 -0.72
v 0.94 0.94 -0.72
v 0.96 0.94 -0.72
v 0.62 0.96 -0.72
v 0.64 0.96 -0.72
v 0.66 0.96 -0.72
v 0.9 0.96 -0.72
v 0.92 0.96 -0.72
v 0.94 0.96 -0.72
v 0.64 0.98 -0.72
v 0.66 0.98 -0.72
v 0.68 0.98 -0.72
v 0.88 0.98 -0.72
v 0.9 0.98 -0.72
v 0.92 0.98 -0.72
v 0.66 1 -0.72
v 0.68 1 -0.72
v 0.7 1 -0.72
v 0.86 1 -0.72
v 0.88 1 -0.72
v 0.9 1 -0.72
v 0.68 1.02 -0.72
v 0.7 1.02 -0.72
v 0.86 1.02 -0.72
v 0.88 1.02 -0.72
v 0.7 1.04 -0.72
v 0.86 1.04 -0.72
v 0.6 0.78 -0.76
v 0.6 0.94 -0.76
v 0.6 0.78 -0.72
v 0.6 0.94 -0.72
v 0.62 0.76 -0.76
v 0.62 0.78 -0.76
v 0.62 0.94 -0.76
v 0.62 0.96 -0.76
v 0.62 0.76 -0.72
v 0.62 0.78 -0.72
v 0.62 0.94 -0.72
v 0.62 0.96 -0.72
v 0.64 0.74 -0.76
v 0.64 0.76 -0.76
v 0.64 0.96 -0.76
v 0.64 0.98 -0.76
v 0.64 0.74 -0.72
v 0.64 0.76 -0.72
v 0.64 0.96 -0.72
v 0.64 0.98 -0.72
v 0.66 0.72 -0.76
v 0.66 0.74 -0.76
v 0.66 0.98 -0.76
v 0.66 1 -0.76
v 0.66 0.72 -0.72
v 0.66 0.74 -0.72
v 0.66 0.98 -0.72
v 0.66 1 -0.72
v 0.68 0.78 -0.78
v 0.68 0.8 -0.78
v 0.68 0.92 -0.78
v 0.68 0.94 -0.78
v 0.68 0.7 -0.76
v 0.68 0.72 -0.76
v 0.68 0.78 -0.76
v 0.68 0.8 -0.76
v 0.68 0.92 -0.76
v 0.68 0.94 -0.76
v 0.68 1 -0.76
v 0.68 1.02 -0.76
v 0.68 0.7 -0.72
v 0.68 0.72 -0.72
v 0.68 1 -0.72
v 0.68 1.02 -0.72
v 0.7 0.68 -0.76
v 0.7 0.7 -0.76
v 0.7 1.02 -0.76
v 0.7 1.04 -0.76
v 0.7 0.68 -0.72
v 0.7 0.7 -0.72
v 0.7 1.02 -0.72
v 0.7 1.04 -0.72
v 0.74 0 -0.82
v 0.74 0.02 -0.82
v 0.74 0 -0.74
v 0.74 0.02 -0.74
v 0.76 0.02 -0.8
v 0.76 0.98 -0.8
v 0.76 0.78 -0.78
v 0.76 0.8 -0.78
v 0.76 0.92 -0.78
v 0.76 0.94 -0.78
v 0.76 0.02 -0.76
v 0.76 0.68 -0.76
v 0.76 0.7 -0.76
v 0.76 0.78 -0.76
v 0.76 0.8 -0.76
v 0.76 0.92 -0.76
v 0.76 0.94 -0.76
v 0.76 0.98 -0.76
v 0.8 0.02 -0.8
v 0.8 0.98 -0.8
v 0.8 0.78 -0.78
v 0.8 0.8 -0.78
v 0.8 0.92 -0.78
v 0.8 0.94 -0.78
v 0.8 0.02 -0.76
v 0.8 0.68 -0.76
v 0.8 0.7 -0.76
v 0.8 0.78 -0.76
v 0.8 0.8 -0.76
v 0.8 0.92 -0.76
v 0.8 0.94 -0.76
v 0.8 0.98 -0.76
v 0.82 0 -0.82
v 0.82 0.02 -0.82
v 0.82 0 -0.74
v 0.82 0.02 -0.74
v 0.86 0.68 -0.76
v 0.86 0.7 -0.76
v 0.86 1.02 -0.76
v 0.86 1.04 -0.76
v 0.86 0.68 -0.72
v 0.86 0.7 -0.72
v 0.86 1.02 -0.72
v 0.86 1.04 -0.72
v 0.88 0.78 -0.78
v 0.88 0.8 -0.78
v 0.88 0.92 -0.78
v 0.88 0.94 -0.78
v 0.88 0.7 -0.76
v 0.88 0.72 -0.76
v 0.88 0.78 -0.76
v 0.88 0.8 -0.76
v 0.88 0.92 -0.76
v 0.88 0.94 -0.76
v 0.88 1 -0.76
v 0.88 1.02 -0.76
v 0.88 0.7 -0.72
v 0.88 0.72 -0.72
v 0.88 1 -0.72
v 0.88 1.02 -0.72
v 0.9 0.72 -0.76
v 0.9 0.74 -0.76
v 0.9 0.98 -0.76
v 0.9 1 -0.76
v 0.9 0.72 -0.72
v 0.9 0.74 -0.72
v 0.9 0.98 -0.72
v 0.9 1 -0.72
v 0.92 0.74 -0.76
v 0.92 0.76 -0.76
v 0.92 0.96 -0.76
v 0.92 0.98 -0.76
v 0.92 0.74 -0.72
v 0.92 0.76 -0.72
v 0.92 0.96 -0.72
v 0.92 0.98 -0.72
v 0.94 0.76 -0.76
v 0.94 0.78 -0.76
v 0.94 0.94 -0.76
v 0.94 0.96 -0.76
v 0.94 0.76 -0.72
v 0.94 0.78 -0.72
v 0.94 0.94 -0.72
v 0.94 0.96 -0.72
v 0.96 0.78 -0.76
v 0.96 0.94 -0.76
v 0.96 0.78 -0.72
v 0.96 0.94 -0.72
v 0.74 0 -0.82
v 0.74 0 -0.74
v 0.82 0 -0.82
v 0.82 0 -0.74
v 0.7 0.68 -0.76
v 0.7 0.68 -0.72
v 0.76 0.68 -0.76
v 0.8 0.68 -0.76
v 0.86 0.68 -0.76
v 0.86 0.68 -0.72
v 0.68 0.7 -0.76
v 0.68 0.7 -0.72
v 0.7 0.7 -0.76
v 0.7 0.7 -0.72
v 0.86 0.7 -0.76
v 0.86 0.7 -0.72
v 0.88 0.7 -0.76
v 0.88 0.7 -0.72
v 0.66 0.72 -0.76
v 0.66 0.72 -0.72
v 0.68 0.72 -0.76
v 0.68 0.72 -0.72
v 0.88 0.72 -0.76
v 0.88 0.72 -0.72
v 0.9 0.72 -0.76
v 0.9 0.72 -0.72
v 0.64 0.74 -0.76
v 0.64 0.74 -0.72
v 0.66 0.74 -0.76
v 0.66 0.74 -0.72
v 0.9 0.74 -0.76
v 0.9 0.74 -0.72
v 0.92 0.74 -0.76
v 0.92 0.74 -0.72
v 0.62 0.76 -0.76
v 0.62 0.76 -0.72
v 0.64 0.76 -0.76
v 0.64 0.76 -0.72
v 0.92 0.76 -0.76
v 0.92 0.76 -0.72
v 0.94 0.76 -0.76
v 0.94 0.76 -0.72
v 0.6 0.78 -0.76
v 0.6 0.78 -0.72
v 0.62 0.78 -0.76
v 0.62 0.78 -0.72
v 0.68 0.78 -0.78
v 0.68 0.78 -0.76
v 0.76 0.78 -0.78
v 0.76 0.78 -0.76
v 0.8 0.78 -0.78
v 0.8 0.78 -0.76
v 0.88 0.78 -0.78
v 0.88 0.78 -0.76
v 0.94 0.78 -0.76
v 0.94 0.78 -0.72
v 0.96 0.78 -0.76
v 0.96 0.78 -0.72
v 0.68 0.92 -0.78
v 0.68 0.92 -0.76
v 0.76 0.92 -0.78
v 0.76 0.92 -0.76
v 0.8 0.92 -0.78
v 0.8 0.92 -0.76
v 0.88 0.92 -0.78
v 0.88 0.92 -0.76
v 0.74 0.02 -0.82
v 0.74 0.02 -0.74
v 0.76 0.02 -0.8
v 0.76 0.02 -0.76
v 0.8 0.02 -0.8
v 0.8 0.02 -0.76
v 0.82 0.02 -0.82
v 0.82 0.02 -0.74
v 0.68 0.8 -0.78
v 0.68 0.8 -0.76
v 0.76 0.8 -0.78
v 0.76 0.8 -0.76
v 0.8 0.8 -0.78
v 0.8 0.8 -0.76
v 0.88 0.8 -0.78
v 0.88 0.8 -0.76
v 0.6 0.94 -0.76
v 0.6 0.94 -0.72
v 0.62 0.94 -0.76
v 0.62 0.94 -0.72
v 0.68 0.94 -0.78
v 0.68 0.94 -0.76
v 0.76 0.94 -0.78
v 0.76 0.94 -0.76
v 0.8 0.94 -0.78
v 0.8 0.94 -0.76
v 0.88 0.94 -0.78
v 0.88 0.94 -0.76
v 0.94 0.94 -0.76
v 0.94 0.94 -0.72
v 0.96 0.94 -0.76
v 0.96 0.94 -0.72
v 0.62 0.96 -0.76
v 0.62 0.96 -0.72
v 0.64 0.96 -0.76
v 0.64 0.96 -0.72
v 0.92 0.96 -0.76
v 0.92 0.96 -0.72
v 0.94 0.96 -0.76
v 0.94 0.96 -0.72
v 0.64 0.98 -0.76
v 0.64 0.98 -0.72
v 0.66 0.98 -0.76
v 0.66 0.98 -0.72
v 0.76 0.98 -0.8
v 0.76 0.98 -0.76
v 0.8 0.98 -0.8
v 0.8 0.98 -0.76
v 0.9 0.98 -0.76
v 0.9 0.98 -0.72
v 0.92 0.98 -0.76
v 0.92 0.98 -0.72
v 0.66 1 -0.76
v 0.66 1 -0.72
v 0.68 1 -0.76
v 0.68 1 -0.72
v 0.88 1 -0.76
v 0.88 1 -0.72
v 0.9 1 -0.76
v 0.9 1 -0.72
v 0.68 1.02 -0.76
v 0.68 1.02 -0.72
v 0.7 1.02 -0.76
v 0.7 1.02 -0.72
v 0.86 1.02 -0.76
v 0.86 1.02 -0.72
v 0.88 1.02 -0.76
v 0.88 1.02 -0.72
v 0.7 1.04 -0.76
v 0.7 1.04 -0.72
v 0.86 1.04 -0.76
v 0.86 1.04 -0.72

# faces
f 3/1/1 2/1/1 1/1/1
f 4/1/1 2/1/1 3/1/1
f 7/1/1 6/1/1 5/1/1
f 8/1/1 6/1/1 7/1/1
f 13/1/1 10/1/1 9/1/1
f 14/1/1 10/1/1 13/1/1
f 15/1/1 12/1/1 11/1/1
f 16/1/1 12/1/1 15/1/1
f 21/1/1 18/1/1 17/1/1
f 22/1/1 18/1/1 21/1/1
f 23/1/1 20/1/1 19/1/1
f 24/1/1 20/1/1 23/1/1
f 30/3/1 26/3/1 25/3/1
f 31/3/1 26/3/1 30/3/1
f 32/3/1 28/3/1 27/3/1
f 33/3/1 28/3/1 32/3/1
f 36/3/1 30/3/1 29/3/1
f 37/2/1 31/2/1 30/2/1
f 37/3/1 30/3/1 36/3/1
f 38/3/1 34/3/1 33/3/1
f 38/2/1 33/2/1 32/2/1
f 39/3/1 34/3/1 38/3/1
f 42/3/1 36/3/1 35/3/1
f 43/2/1 37/2/1 36/2/1
f 43/3/1 36/3/1 42/3/1
f 44/3/1 40/3/1 39/3/1
f 44/2/1 39/2/1 38/2/1
f 45/3/1 40/3/1 44/3/1
f 48/3/1 42/3/1 41/3/1
f 49/2/1 43/2/1 42/2/1
f 49/3/1 42/3/1 48/3/1
f 50/3/1 46/3/1 45/3/1
f 50/2/1 45/2/1 44/2/1
f 51/3/1 46/3/1 50/3/1
f 54/3/1 48/3/1 47/3/1
f 55/2/1 49/2/1 48/2/1
f 55/3/1 48/3/1 54/3/1
f 56/2/1 37/2/1 43/2/1
f 56/2/1 49/2/1 55/2/1
f 56/2/1 43/2/1 49/2/1
f 57/2/1 31/2/1 37/2/1
f 57/2/1 37/2/1 56/2/1
f 58/2/1 38/2/1 32/2/1
f 58/2/1 44/2/1 38/2/1
f 58/2/1 51/2/1 50/2/1
f 58/2/1 50/2/1 44/2/1
f 59/2/1 51/2/1 58/2/1
f 60/3/1 52/3/1 51/3/1
f 60/2/1 51/2/1 59/2/1
f 61/3/1 52/3/1 60/3/1
f 63/2/1 55/2/1 54/2/1
f 63/2/1 56/2/1 55/2/1
f 66/2/1 61/2/1 60/2/1
f 66/2/1 60/2/1 59/2/1
f 67/2/1 64/2/1 63/2/1
f 67/2/1 63/2/1 54/2/1
f 68/2/1 64/2/1 67/2/1
f 69/2/1 66/2/1 65/2/1
f 70/2/1 61/2/1 66/2/1
f 70/2/1 66/2/1 69/2/1
f 71/3/1 54/3/1 53/3/1
f 72/2/1 67/2/1 54/2/1
f 72/3/1 54/3/1 71/3/1
f 73/2/1 67/2/1 72/2/1
f 74/2/1 67/2/1 73/2/1
f 77/2/1 61/2/1 70/2/1
f 78/2/1 61/2/1 77/2/1
f 79/3/1 62/3/1 61/3/1
f 79/2/1 61/2/1 78/2/1
f 80/3/1 62/3/1 79/3/1
f 81/3/1 73/3/1 72/3/1
f 82/2/1 75/2/1 74/2/1
f 82/3/1 73/3/1 81/3/1
f 82/2/1 74/2/1 73/2/1
f 83/2/1 75/2/1 82/2/1
f 84/2/1 78/2/1 77/2/1
f 84/2/1 77/2/1 76/2/1
f 85/3/1 79/3/1 78/3/1
f 85/2/1 78/2/1 84/2/1
f 86/3/1 79/3/1 85/3/1
f 87/3/1 83/3/1 82/3/1
f 88/2/1 75/2/1 83/2/1
f 88/3/1 83/3/1 87/3/1
f 89/2/1 75/2/1 88/2/1
f 90/2/1 75/2/1 89/2/1
f 91/2/1 84/2/1 76/2/1
f 92/2/1 84/2/1 91/2/1
f 93/3/1 85/3/1 84/3/1
f 93/2/1 84/2/1 92/2/1
f 94/3/1 85/3/1 93/3/1
f 95/3/1 89/3/1 88/3/1
f 96/2/1 90/2/1 89/2/1
f 96/3/1 89/3/1 95/3/1
f 96/2/1 92/2/1 91/2/1
f 96/2/1 91/2/1 90/2/1
f 97/2/1 92/2/1 96/2/1
f 98/2/1 92/2/1 97/2/1
f 99/3/1 93/3/1 92/3/1
f 99/2/1 92/2/1 98/2/1
f 100/3/1 93/3/1 99/3/1
f 101/3/1 97/3/1 96/3/1
f 102/2/1 98/2/1 97/2/1
f 102/3/1 97/3/1 101/3/1
f 103/3/1 99/3/1 98/3/1
f 103/2/1 98/2/1 102/2/1
f 104/3/1 99/3/1 103/3/1
f 105/3/1 103/3/1 102/3/1
f 106/3/1 103/3/1 105/3/1
f 107/1/2 108/1/2 109/1/2
f 109/1/2 108/1/2 110/1/2
f 111/1/2 112/1/2 113/1/2
f 113/1/2 112/1/2 114/1/2
f 115/3/2 116/3/2 118/3/2
f 118/3/2 116/3/2 119/3/2
f 117/3/2 118/3/2 122/3/2
f 118/2/2 119/2/2 123/2/2
f 122/3/2 118/3/2 123/3/2
f 119/3/2 120/3/2 124/3/2
f 123/2/2 119/2/2 124/2/2
f 124/3/2 120/3/2 125/3/2
f 121/3/2 122/3/2 128/3/2
f 122/2/2 123/2/2 129/2/2
f 123/2/2 124/2/2 129/2/2
f 128/3/2 122/3/2 129/3/2
f 124/2/2 125/2/2 129/2/2
f 125/3/2 126/3/2 130/3/2
f 129/2/2 125/2/2 130/2/2
f 130/3/2 126/3/2 131/3/2
f 127/3/2 128/3/2 134/3/2
f 128/2/2 129/2/2 135/2/2
f 129/2/2 130/2/2 135/2/2
f 134/3/2 128/3/2 135/3/2
f 130/2/2 131/2/2 135/2/2
f 131/3/2 132/3/2 136/3/2
f 135/2/2 131/2/2 136/2/2
f 136/3/2 132/3/2 137/3/2
f 133/3/2 134/3/2 140/3/2
f 134/2/2 135/2/2 141/2/2
f 135/2/2 136/2/2 141/2/2
f 140/3/2 134/3/2 141/3/2
f 136/2/2 137/2/2 141/2/2
f 137/3/2 138/3/2 142/3/2
f 141/2/2 137/2/2 142/2/2
f 142/3/2 138/3/2 143/3/2
f 140/2/2 141/2/2 145/2/2
f 141/2/2 142/2/2 145/2/2
f 142/2/2 143/2/2 145/2/2
f 145/2/2 143/2/2 146/2/2
f 146/2/2 143/2/2 147/2/2
f 147/2/2 143/2/2 148/2/2
f 148/2/2 143/2/2 149/2/2
f 149/2/2 143/2/2 150/2/2
f 150/2/2 143/2/2 151/2/2
f 151/2/2 143/2/2 152/2/2
f 140/2/2 145/2/2 153/2/2
f 145/3/2 146/3/2 153/3/2
f 153/3/2 146/3/2 154/3/2
f 149/3/2 150/3/2 155/3/2
f 155/3/2 150/3/2 156/3/2
f 152/2/2 143/2/2 157/2/2
f 151/3/2 152/3/2 157/3/2
f 157/2/2 143/2/2 158/2/2
f 140/2/2 153/2/2 159/2/2
f 153/2/2 154/2/2 159/2/2
f 154/3/2 146/3/2 160/3/2
f 159/2/2 154/2/2 160/2/2
f 157/3/2 158/3/2 161/3/2
f 151/3/2 157/3/2 161/3/2
f 161/3/2 158/3/2 162/3/2
f 159/3/2 160/3/2 163/3/2
f 146/2/2 147/2/2 164/2/2
f 163/3/2 160/3/2 164/3/2
f 160/3/2 146/3/2 164/3/2
f 159/3/2 163/3/2 165/3/2
f 163/2/2 164/2/2 165/2/2
f 164/2/2 147/2/2 166/2/2
f 165/2/2 164/2/2 166/2/2
f 166/2/2 147/2/2 167/2/2
f 147/3/2 148/3/2 168/3/2
f 167/2/2 147/2/2 168/2/2
f 148/2/2 149/2/2 169/2/2
f 168/3/2 148/3/2 169/3/2
f 149/3/2 155/3/2 170/3/2
f 169/2/2 149/2/2 170/2/2
f 155/2/2 156/2/2 171/2/2
f 170/3/2 155/3/2 171/3/2
f 156/3/2 150/3/2 172/3/2
f 171/2/2 156/2/2 172/2/2
f 161/2/2 162/2/2 173/2/2
f 151/3/2 161/3/2 173/3/2
f 162/3/2 158/3/2 174/3/2
f 173/2/2 162/2/2 174/2/2
f 159/3/2 165/3/2 175/3/2
f 140/2/2 159/2/2 175/2/2
f 165/3/2 166/3/2 175/3/2
f 166/2/2 167/2/2 176/2/2
f 175/3/2 166/3/2 176/3/2
f 170/3/2 171/3/2 177/3/2
f 176/2/2 167/2/2 177/2/2
f 169/3/2 170/3/2 177/3/2
f 171/3/2 172/3/2 177/3/2
f 167/3/2 168/3/2 177/3/2
f 168/3/2 169/3/2 177/3/2
f 172/3/2 150/3/2 178/3/2
f 177/3/2 172/3/2 178/3/2
f 150/2/2 151/2/2 178/2/2
f 151/3/2 173/3/2 179/3/2
f 178/2/2 151/2/2 179/2/2
f 173/3/2 174/3/2 179/3/2
f 174/3/2 158/3/2 180/3/2
f 179/3/2 174/3/2 180/3/2
f 158/2/2 143/2/2 180/2/2
f 139/3/2 140/3/2 181/3/2
f 175/2/2 176/2/2 182/2/2
f 181/3/2 140/3/2 182/3/2
f 177/2/2 178/2/2 182/2/2
f 179/2/2 180/2/2 182/2/2
f 176/2/2 177/2/2 182/2/2
f 140/2/2 175/2/2 182/2/2
f 178/2/2 179/2/2 182/2/2
f 182/2/2 180/2/2 183/2/2
f 180/2/2 143/2/2 184/2/2
f 183/2/2 180/2/2 184/2/2
f 143/3/2 144/3/2 185/3/2
f 184/2/2 143/2/2 185/2/2
f 185/3/2 144/3/2 186/3/2
f 182/3/2 183/3/2 187/3/2
f 183/2/2 184/2/2 188/2/2
f 187/3/2 183/3/2 188/3/2
f 188/2/2 184/2/2 189/2/2
f 189/2/2 184/2/2 190/2/2
f 184/3/2 185/3/2 191/3/2
f 190/2/2 184/2/2 191/2/2
f 191/3/2 185/3/2 192/3/2
f 188/3/2 189/3/2 193/3/2
f 189/2/2 190/2/2 194/2/2
f 193/3/2 189/3/2 194/3/2
f 194/2/2 190/2/2 195/2/2
f 195/2/2 190/2/2 196/2/2
f 190/3/2 191/3/2 197/3/2
f 196/2/2 190/2/2 197/2/2
f 197/3/2 191/3/2 198/3/2
f 194/3/2 195/3/2 199/3/2
f 195/2/2 196/2/2 200/2/2
f 199/3/2 195/3/2 200/3/2
f 200/2/2 196/2/2 201/2/2
f 201/2/2 196/2/2 202/2/2
f 196/3/2 197/3/2 203/3/2
f 202/2/2 196/2/2 203/2/2
f 203/3/2 197/3/2 204/3/2
f 200/3/2 201/3/2 205/3/2
f 201/2/2 202/2/2 206/2/2
f 205/3/2 201/3/2 206/3/2
f 202/3/2 203/3/2 207/3/2
f 206/2/2 202/2/2 207/2/2
f 207/3/2 203/3/2 208/3/2
f 206/3/2 207/3/2 209/3/2
f 209/3/2 207/3/2 210/3/2
f 213/3/3 212/3/3 211/3/3
f 214/3/3 212/3/3 213/3/3
f 219/3/3 216/3/3 215/3/3
f 220/3/3 216/3/3 219/3/3
f 221/3/3 218/3/3 217/3/3
f 222/3/3 218/3/3 221/3/3
f 227/3/3 224/3/3 223/3/3
f 228/3/3 224/3/3 227/3/3
f 229/3/3 226/3/3 225/3/3
f 230/3/3 226/3/3 229/3/3
f 235/3/3 232/3/3 231/3/3
f 236/3/3 232/3/3 235/3/3
f 237/3/3 234/3/3 233/3/3
f 238/3/3 234/3/3 237/3/3
f 245/1/3 240/1/3 239/1/3
f 246/1/3 240/1/3 245/1/3
f 247/1/3 242/1/3 241/1/3
f 248/1/3 242/1/3 247/1/3
f 251/3/3 244/3/3 243/3/3
f 252/3/3 244/3/3 251/3/3
f 253/3/3 250/3/3 249/3/3
f 254/3/3 250/3/3 253/3/3
f 259/3/3 256/3/3 255/3/3
f 260/3/3 256/3/3 259/3/3
f 261/3/3 258/3/3 257/3/3
f 262/3/3 258/3/3 261/3/3
f 265/1/3 264/1/3 263/1/3
f 266/1/3 264/1/3 265/1/3
f 269/1/3 268/1/3 267/1/3
f 270/1/3 268/1/3 269/1/3
f 271/1/3 268/1/3 270/1/3
f 272/1/3 268/1/3 271/1/3
f 273/1/3 269/1/3 267/1/3
f 274/1/3 269/1/3 273/1/3
f 275/1/3 269/1/3 274/1/3
f 276/1/3 269/1/3 275/1/3
f 277/1/3 271/1/3 270/1/3
f 278/1/3 271/1/3 277/1/3
f 279/1/3 268/1/3 272/1/3
f 280/1/3 268/1/3 279/1/3
f 281/1/4 282/1/4 283/1/4
f 283/1/4 282/1/4 284/1/4
f 284/1/4 282/1/4 285/1/4
f 285/1/4 282/1/4 286/1/4
f 281/1/4 283/1/4 287/1/4
f 287/1/4 283/1/4 288/1/4
f 288/1/4 283/1/4 289/1/4
f 289/1/4 283/1/4 290/1/4
f 284/1/4 285/1/4 291/1/4
f 291/1/4 285/1/4 292/1/4
f 286/1/4 282/1/4 293/1/4
f 293/1/4 282/1/4 294/1/4
f 295/1/4 296/1/4 297/1/4
f 297/1/4 296/1/4 298/1/4
f 299/3/4 300/3/4 303/3/4
f 303/3/4 300/3/4 304/3/4
f 301/3/4 302/3/4 305/3/4
f 305/3/4 302/3/4 306/3/4
f 307/1/4 308/1/4 313/1/4
f 313/1/4 308/1/4 314/1/4
f 309/1/4 310/1/4 315/1/4
f 315/1/4 310/1/4 316/1/4
f 311/3/4 312/3/4 319/3/4
f 319/3/4 312/3/4 320/3/4
f 317/3/4 318/3/4 321/3/4
f 321/3/4 318/3/4 322/3/4
f 323/3/4 324/3/4 327/3/4
f 327/3/4 324/3/4 328/3/4
f 325/3/4 326/3/4 329/3/4
f 329/3/4 326/3/4 330/3/4
f 331/3/4 332/3/4 335/3/4
f 335/3/4 332/3/4 336/3/4
f 333/3/4 334/3/4 337/3/4
f 337/3/4 334/3/4 338/3/4
f 339/3/4 340/3/4 343/3/4
f 343/3/4 340/3/4 344/3/4
f 341/3/4 342/3/4 345/3/4
f 345/3/4 342/3/4 346/3/4
f 347/3/4 348/3/4 349/3/4
f 349/3/4 348/3/4 350/3/4
f 353/1/5 352/1/5 351/1/5
f 354/1/5 352/1/5 353/1/5
f 357/3/5 356/3/5 355/3/5
f 358/3/5 356/3/5 357/3/5
f 359/3/5 356/3/5 358/3/5
f 360/3/5 356/3/5 359/3/5
f 363/3/5 362/3/5 361/3/5
f 364/3/5 362/3/5 363/3/5
f 367/3/5 366/3/5 365/3/5
f 368/3/5 366/3/5 367/3/5
f 371/3/5 370/3/5 369/3/5
f 372/3/5 370/3/5 371/3/5
f 375/3/5 374/3/5 373/3/5
f 376/3/5 374/3/5 375/3/5
f 379/3/5 378/3/5 377/3/5
f 380/3/5 378/3/5 379/3/5
f 383/3/5 382/3/5 381/3/5
f 384/3/5 382/3/5 383/3/5
f 387/3/5 386/3/5 385/3/5
f 388/3/5 386/3/5 387/3/5
f 391/3/5 390/3/5 389/3/5
f 392/3/5 390/3/5 391/3/5
f 395/3/5 394/3/5 393/3/5
f 396/3/5 394/3/5 395/3/5
f 399/1/5 398/1/5 397/1/5
f 400/1/5 398/1/5 399/1/5
f 403/1/5 402/1/5 401/1/5
f 404/1/5 402/1/5 403/1/5
f 407/3/5 406/3/5 405/3/5
f 408/3/5 406/3/5 407/3/5
f 411/1/5 410/1/5 409/1/5
f 412/1/5 410/1/5 411/1/5
f 415/1/5 414/1/5 413/1/5
f 416/1/5 414/1/5 415/1/5
f 417/1/6 418/1/6 419/1/6
f 419/1/6 418/1/6 420/1/6
f 417/1/6 419/1/6 421/1/6
f 420/1/6 418/1/6 422/1/6
f 417/1/6 421/1/6 423/1/6
f 421/1/6 422/1/6 423/1/6
f 422/1/6 418/1/6 424/1/6
f 423/1/6 422/1/6 424/1/6
f 425/1/6 426/1/6 427/1/6
f 427/1/6 426/1/6 428/1/6
f 429/1/6 430/1/6 431/1/6
f 431/1/6 430/1/6 432/1/6
f 433/3/6 434/3/6 435/3/6
f 435/3/6 434/3/6 436/3/6
f 437/1/6 438/1/6 439/1/6
f 439/1/6 438/1/6 440/1/6
f 441/1/6 442/1/6 443/1/6
f 443/1/6 442/1/6 444/1/6
f 445/3/6 446/3/6 447/3/6
f 447/3/6 446/3/6 448/3/6
f 449/3/6 450/3/6 451/3/6
f 451/3/6 450/3/6 452/3/6
f 453/3/6 454/3/6 455/3/6
f 455/3/6 454/3/6 456/3/6
f 457/3/6 458/3/6 459/3/6
f 459/3/6 458/3/6 460/3/6
f 461/1/6 462/1/6 463/1/6
f 463/1/6 462/1/6 464/1/6
f 465/3/6 466/3/6 467/3/6
f 467/3/6 466/3/6 468/3/6
f 469/3/6 470/3/6 471/3/6
f 471/3/6 470/3/6 472/3/6
f 473/3/6 474/3/6 475/3/6
f 475/3/6 474/3/6 476/3/6
f 477/3/6 478/3/6 479/3/6
f 479/3/6 478/3/6 480/3/6
f 481/3/6 482/3/6 483/3/6
f 483/3/6 482/3/6 484/3/6
f 485/3/6 486/3/6 487/3/6
f 487/3/6 486/3/6 488/3/6
