# MagicaVoxel @ Ephtracy

# group
o Street-6

# material
mtllib Free Sample-3-Street-6.mtl
usemtl palette

# normals
vn 0 0 1
vn 0 0 -1
vn 1 0 0
vn -1 0 0
vn 0 -1 0
vn 0 1 0

# texcoords
vt 0.283203 0.5
vt 0.501953 0.5
vt 0.939453 0.5

# verts
v -2.34 0 0.8
v -3.82 0 0.8
v -3.9 0 0.8
v -3.94 0 0.8
v -2.34 0.04 0.8
v -3.82 0.04 0.8
v -3.9 0.04 0.8
v -3.94 0.04 0.8
v -2.34 0 -0.8
v -3.82 0 -0.8
v -3.9 0 -0.8
v -3.94 0 -0.8
v -2.34 0.04 -0.8
v -3.82 0.04 -0.8
v -3.9 0.04 -0.8
v -3.94 0.04 -0.8
v -2.34 0 0.8
v -2.34 0.04 0.8
v -2.34 0 -0.8
v -2.34 0.04 -0.8
v -3.94 0 0.8
v -3.94 0.04 0.8
v -3.94 0 -0.8
v -3.94 0.04 -0.8
v -2.34 0 0.8
v -2.34 0 -0.8
v -3.18 0 -0.4
v -3.18 0 -0.56
v -3.22 0 -0.48
v -3.22 0 -0.56
v -3.26 0 -0.4
v -3.26 0 -0.48
v -3.5 0 0.0799999
v -3.5 0 -0.08
v -3.58 0 0.0799999
v -3.58 0 -0.08
v -3.62 0 0.24
v -3.62 0 0.16
v -3.66 0 0.24
v -3.66 0 0.16
v -3.82 0 0.8
v -3.82 0 -0.8
v -3.9 0 0.8
v -3.9 0 -0.8
v -3.94 0 0.8
v -3.94 0 -0.8
v -2.34 0.04 0.8
v -2.34 0.04 -0.8
v -2.56 0.04 0.22
v -2.56 0.04 0.2
v -2.58 0.04 0.22
v -2.58 0.04 0.2
v -2.84 0.04 -0.12
v -2.84 0.04 -0.16
v -2.88 0.04 -0.12
v -2.88 0.04 -0.16
v -3 0.04 0.24
v -3 0.04 0.18
v -3.06 0.04 0.24
v -3.06 0.04 0.18
v -3.18 0.04 -0.4
v -3.18 0.04 -0.54
v -3.22 0.04 -0.48
v -3.22 0.04 -0.54
v -3.26 0.04 -0.4
v -3.26 0.04 -0.48
v -3.5 0.04 -5.96046e-08
v -3.5 0.04 -0.08
v -3.58 0.04 -5.96046e-08
v -3.58 0.04 -0.08
v -3.62 0.04 0.22
v -3.62 0.04 0.16
v -3.66 0.04 0.22
v -3.66 0.04 0.16
v -3.82 0.04 0.8
v -3.82 0.04 -0.8
v -3.9 0.04 0.8
v -3.9 0.04 -0.8
v -3.94 0.04 0.8
v -3.94 0.04 -0.8

# faces
f 5/3/1 2/3/1 1/3/1
f 6/1/1 3/1/1 2/1/1
f 6/3/1 2/3/1 5/3/1
f 7/3/1 4/3/1 3/3/1
f 7/1/1 3/1/1 6/1/1
f 8/3/1 4/3/1 7/3/1
f 9/3/2 10/3/2 13/3/2
f 10/1/2 11/1/2 14/1/2
f 13/3/2 10/3/2 14/3/2
f 11/3/2 12/3/2 15/3/2
f 14/1/2 11/1/2 15/1/2
f 15/3/2 12/3/2 16/3/2
f 19/3/3 18/3/3 17/3/3
f 20/3/3 18/3/3 19/3/3
f 21/3/4 22/3/4 23/3/4
f 23/3/4 22/3/4 24/3/4
f 27/3/5 26/3/5 25/3/5
f 28/3/5 26/3/5 27/3/5
f 29/2/5 28/2/5 27/2/5
f 30/3/5 26/3/5 28/3/5
f 30/2/5 28/2/5 29/2/5
f 31/3/5 27/3/5 25/3/5
f 31/2/5 29/2/5 27/2/5
f 32/3/5 30/3/5 29/3/5
f 32/2/5 29/2/5 31/2/5
f 33/3/5 31/3/5 25/3/5
f 33/3/5 32/3/5 31/3/5
f 34/3/5 32/3/5 33/3/5
f 35/3/5 33/3/5 25/3/5
f 35/2/5 34/2/5 33/2/5
f 36/3/5 32/3/5 34/3/5
f 36/2/5 34/2/5 35/2/5
f 37/3/5 35/3/5 25/3/5
f 37/3/5 36/3/5 35/3/5
f 38/3/5 36/3/5 37/3/5
f 39/3/5 37/3/5 25/3/5
f 39/2/5 38/2/5 37/2/5
f 40/3/5 36/3/5 38/3/5
f 40/2/5 38/2/5 39/2/5
f 41/3/5 39/3/5 25/3/5
f 41/3/5 40/3/5 39/3/5
f 42/3/5 26/3/5 30/3/5
f 42/3/5 40/3/5 41/3/5
f 42/3/5 30/3/5 32/3/5
f 42/3/5 36/3/5 40/3/5
f 42/3/5 32/3/5 36/3/5
f 43/1/5 42/1/5 41/1/5
f 44/1/5 42/1/5 43/1/5
f 45/3/5 44/3/5 43/3/5
f 46/3/5 44/3/5 45/3/5
f 47/3/6 48/3/6 49/3/6
f 49/3/6 48/3/6 50/3/6
f 47/3/6 49/3/6 51/3/6
f 49/2/6 50/2/6 51/2/6
f 50/3/6 48/3/6 52/3/6
f 51/2/6 50/2/6 52/2/6
f 51/3/6 52/3/6 53/3/6
f 52/3/6 48/3/6 53/3/6
f 53/3/6 48/3/6 54/3/6
f 51/3/6 53/3/6 55/3/6
f 53/2/6 54/2/6 55/2/6
f 54/3/6 48/3/6 56/3/6
f 55/2/6 54/2/6 56/2/6
f 47/3/6 51/3/6 57/3/6
f 51/3/6 55/3/6 57/3/6
f 55/3/6 56/3/6 57/3/6
f 57/3/6 56/3/6 58/3/6
f 47/3/6 57/3/6 59/3/6
f 57/2/6 58/2/6 59/2/6
f 58/3/6 56/3/6 60/3/6
f 59/2/6 58/2/6 60/2/6
f 56/3/6 48/3/6 61/3/6
f 60/3/6 56/3/6 61/3/6
f 59/3/6 60/3/6 61/3/6
f 61/3/6 48/3/6 62/3/6
f 61/2/6 62/2/6 63/2/6
f 62/3/6 48/3/6 64/3/6
f 63/2/6 62/2/6 64/2/6
f 59/3/6 61/3/6 65/3/6
f 61/2/6 63/2/6 65/2/6
f 63/3/6 64/3/6 66/3/6
f 65/2/6 63/2/6 66/2/6
f 59/3/6 65/3/6 67/3/6
f 65/3/6 66/3/6 67/3/6
f 67/3/6 66/3/6 68/3/6
f 59/3/6 67/3/6 69/3/6
f 67/2/6 68/2/6 69/2/6
f 68/3/6 66/3/6 70/3/6
f 69/2/6 68/2/6 70/2/6
f 59/3/6 69/3/6 71/3/6
f 69/3/6 70/3/6 71/3/6
f 71/3/6 70/3/6 72/3/6
f 59/3/6 71/3/6 73/3/6
f 71/2/6 72/2/6 73/2/6
f 72/3/6 70/3/6 74/3/6
f 73/2/6 72/2/6 74/2/6
f 47/3/6 59/3/6 75/3/6
f 59/3/6 73/3/6 75/3/6
f 73/3/6 74/3/6 75/3/6
f 74/3/6 70/3/6 76/3/6
f 75/3/6 74/3/6 76/3/6
f 64/3/6 48/3/6 76/3/6
f 70/3/6 66/3/6 76/3/6
f 66/3/6 64/3/6 76/3/6
f 75/1/6 76/1/6 77/1/6
f 77/1/6 76/1/6 78/1/6
f 77/3/6 78/3/6 79/3/6
f 79/3/6 78/3/6 80/3/6
