# MagicaVoxel @ Ephtracy

# group
o RoadSign-60

# material
mtllib Free Sample-6-RoadSign-60.mtl
usemtl palette

# normals
vn 0 0 -1
vn 0 0 1
vn -1 0 0
vn 1 0 0
vn 0 -1 0
vn 0 1 0

# texcoords
vt 0.0175781 0.5
vt 0.384766 0.5
vt 0.568359 0.5
vt 0.673828 0.5

# verts
v 0.3 0 -0.82
v 0.38 0 -0.82
v 0.3 0.02 -0.82
v 0.38 0.02 -0.82
v 0.32 0.02 -0.8
v 0.36 0.02 -0.8
v 0.32 0.98 -0.8
v 0.36 0.98 -0.8
v 0.24 0.78 -0.78
v 0.32 0.78 -0.78
v 0.36 0.78 -0.78
v 0.44 0.78 -0.78
v 0.24 0.8 -0.78
v 0.32 0.8 -0.78
v 0.36 0.8 -0.78
v 0.44 0.8 -0.78
v 0.24 0.92 -0.78
v 0.32 0.92 -0.78
v 0.36 0.92 -0.78
v 0.44 0.92 -0.78
v 0.24 0.94 -0.78
v 0.32 0.94 -0.78
v 0.36 0.94 -0.78
v 0.44 0.94 -0.78
v 0.16 0.68 -0.76
v 0.32 0.68 -0.76
v 0.36 0.68 -0.76
v 0.52 0.68 -0.76
v 0.18 0.7 -0.76
v 0.32 0.7 -0.76
v 0.36 0.7 -0.76
v 0.5 0.7 -0.76
v 0.24 0.78 -0.76
v 0.32 0.78 -0.76
v 0.36 0.78 -0.76
v 0.44 0.78 -0.76
v 0.24 0.8 -0.76
v 0.32 0.8 -0.76
v 0.36 0.8 -0.76
v 0.44 0.8 -0.76
v 0.24 0.92 -0.76
v 0.32 0.92 -0.76
v 0.36 0.92 -0.76
v 0.44 0.92 -0.76
v 0.24 0.94 -0.76
v 0.32 0.94 -0.76
v 0.36 0.94 -0.76
v 0.44 0.94 -0.76
v 0.32 0.98 -0.76
v 0.36 0.98 -0.76
v 0.18 1.02 -0.76
v 0.5 1.02 -0.76
v 0.16 1.04 -0.76
v 0.52 1.04 -0.76
v 0.32 0.02 -0.76
v 0.36 0.02 -0.76
v 0.32 0.68 -0.76
v 0.36 0.68 -0.76
v 0.3 0 -0.74
v 0.38 0 -0.74
v 0.3 0.02 -0.74
v 0.38 0.02 -0.74
v 0.16 0.68 -0.72
v 0.52 0.68 -0.72
v 0.18 0.7 -0.72
v 0.5 0.7 -0.72
v 0.3 0.72 -0.72
v 0.38 0.72 -0.72
v 0.22 0.88 -0.72
v 0.3 0.88 -0.72
v 0.38 0.88 -0.72
v 0.46 0.88 -0.72
v 0.22 0.9 -0.72
v 0.24 0.9 -0.72
v 0.44 0.9 -0.72
v 0.46 0.9 -0.72
v 0.24 0.92 -0.72
v 0.26 0.92 -0.72
v 0.42 0.92 -0.72
v 0.44 0.92 -0.72
v 0.26 0.94 -0.72
v 0.28 0.94 -0.72
v 0.4 0.94 -0.72
v 0.42 0.94 -0.72
v 0.28 0.96 -0.72
v 0.3 0.96 -0.72
v 0.38 0.96 -0.72
v 0.4 0.96 -0.72
v 0.3 0.98 -0.72
v 0.32 0.98 -0.72
v 0.36 0.98 -0.72
v 0.38 0.98 -0.72
v 0.32 1 -0.72
v 0.36 1 -0.72
v 0.18 1.02 -0.72
v 0.5 1.02 -0.72
v 0.16 1.04 -0.72
v 0.52 1.04 -0.72
v 0.16 0.68 -0.76
v 0.16 1.04 -0.76
v 0.16 0.68 -0.72
v 0.16 1.04 -0.72
v 0.24 0.78 -0.78
v 0.24 0.8 -0.78
v 0.24 0.92 -0.78
v 0.24 0.94 -0.78
v 0.24 0.78 -0.76
v 0.24 0.8 -0.76
v 0.24 0.92 -0.76
v 0.24 0.94 -0.76
v 0.3 0 -0.82
v 0.3 0.02 -0.82
v 0.3 0 -0.74
v 0.3 0.02 -0.74
v 0.32 0.02 -0.8
v 0.32 0.98 -0.8
v 0.32 0.78 -0.78
v 0.32 0.8 -0.78
v 0.32 0.92 -0.78
v 0.32 0.94 -0.78
v 0.32 0.02 -0.76
v 0.32 0.68 -0.76
v 0.32 0.7 -0.76
v 0.32 0.78 -0.76
v 0.32 0.8 -0.76
v 0.32 0.92 -0.76
v 0.32 0.94 -0.76
v 0.32 0.98 -0.76
v 0.36 0.02 -0.8
v 0.36 0.98 -0.8
v 0.36 0.78 -0.78
v 0.36 0.8 -0.78
v 0.36 0.92 -0.78
v 0.36 0.94 -0.78
v 0.36 0.02 -0.76
v 0.36 0.68 -0.76
v 0.36 0.7 -0.76
v 0.36 0.78 -0.76
v 0.36 0.8 -0.76
v 0.36 0.92 -0.76
v 0.36 0.94 -0.76
v 0.36 0.98 -0.76
v 0.38 0 -0.82
v 0.38 0.02 -0.82
v 0.38 0 -0.74
v 0.38 0.02 -0.74
v 0.44 0.78 -0.78
v 0.44 0.8 -0.78
v 0.44 0.92 -0.78
v 0.44 0.94 -0.78
v 0.44 0.78 -0.76
v 0.44 0.8 -0.76
v 0.44 0.92 -0.76
v 0.44 0.94 -0.76
v 0.52 0.68 -0.76
v 0.52 1.04 -0.76
v 0.52 0.68 -0.72
v 0.52 1.04 -0.72
v 0.3 0 -0.82
v 0.3 0 -0.74
v 0.38 0 -0.82
v 0.38 0 -0.74
v 0.16 0.68 -0.76
v 0.16 0.68 -0.72
v 0.32 0.68 -0.76
v 0.36 0.68 -0.76
v 0.52 0.68 -0.76
v 0.52 0.68 -0.72
v 0.24 0.78 -0.78
v 0.24 0.78 -0.76
v 0.32 0.78 -0.78
v 0.32 0.78 -0.76
v 0.36 0.78 -0.78
v 0.36 0.78 -0.76
v 0.44 0.78 -0.78
v 0.44 0.78 -0.76
v 0.24 0.92 -0.78
v 0.24 0.92 -0.76
v 0.32 0.92 -0.78
v 0.32 0.92 -0.76
v 0.36 0.92 -0.78
v 0.36 0.92 -0.76
v 0.44 0.92 -0.78
v 0.44 0.92 -0.76
v 0.3 0.02 -0.82
v 0.3 0.02 -0.74
v 0.32 0.02 -0.8
v 0.32 0.02 -0.76
v 0.36 0.02 -0.8
v 0.36 0.02 -0.76
v 0.38 0.02 -0.82
v 0.38 0.02 -0.74
v 0.24 0.8 -0.78
v 0.24 0.8 -0.76
v 0.32 0.8 -0.78
v 0.32 0.8 -0.76
v 0.36 0.8 -0.78
v 0.36 0.8 -0.76
v 0.44 0.8 -0.78
v 0.44 0.8 -0.76
v 0.24 0.94 -0.78
v 0.24 0.94 -0.76
v 0.32 0.94 -0.78
v 0.32 0.94 -0.76
v 0.36 0.94 -0.78
v 0.36 0.94 -0.76
v 0.44 0.94 -0.78
v 0.44 0.94 -0.76
v 0.32 0.98 -0.8
v 0.32 0.98 -0.76
v 0.36 0.98 -0.8
v 0.36 0.98 -0.76
v 0.16 1.04 -0.76
v 0.16 1.04 -0.72
v 0.52 1.04 -0.76
v 0.52 1.04 -0.72

# faces
f 3/1/1 2/1/1 1/1/1
f 4/1/1 2/1/1 3/1/1
f 7/1/1 6/1/1 5/1/1
f 8/1/1 6/1/1 7/1/1
f 13/1/1 10/1/1 9/1/1
f 14/1/1 10/1/1 13/1/1
f 15/1/1 12/1/1 11/1/1
f 16/1/1 12/1/1 15/1/1
f 21/1/1 18/1/1 17/1/1
f 22/1/1 18/1/1 21/1/1
f 23/1/1 20/1/1 19/1/1
f 24/1/1 20/1/1 23/1/1
f 29/2/1 26/2/1 25/2/1
f 30/2/1 26/2/1 29/2/1
f 31/2/1 28/2/1 27/2/1
f 32/2/1 28/2/1 31/2/1
f 33/3/1 30/3/1 29/3/1
f 34/3/1 30/3/1 33/3/1
f 35/3/1 32/3/1 31/3/1
f 36/3/1 32/3/1 35/3/1
f 37/3/1 33/3/1 29/3/1
f 40/3/1 32/3/1 36/3/1
f 41/3/1 38/3/1 37/3/1
f 41/3/1 37/3/1 29/3/1
f 42/3/1 38/3/1 41/3/1
f 43/3/1 40/3/1 39/3/1
f 44/3/1 32/3/1 40/3/1
f 44/3/1 40/3/1 43/3/1
f 45/3/1 41/3/1 29/3/1
f 48/3/1 32/3/1 44/3/1
f 49/3/1 46/3/1 45/3/1
f 50/3/1 48/3/1 47/3/1
f 51/2/1 29/2/1 25/2/1
f 51/3/1 50/3/1 49/3/1
f 51/3/1 49/3/1 45/3/1
f 51/3/1 45/3/1 29/3/1
f 52/2/1 28/2/1 32/2/1
f 52/3/1 50/3/1 51/3/1
f 52/3/1 48/3/1 50/3/1
f 52/3/1 32/3/1 48/3/1
f 53/2/1 51/2/1 25/2/1
f 53/2/1 52/2/1 51/2/1
f 54/2/1 28/2/1 52/2/1
f 54/2/1 52/2/1 53/2/1
f 55/1/2 56/1/2 57/1/2
f 57/1/2 56/1/2 58/1/2
f 59/1/2 60/1/2 61/1/2
f 61/1/2 60/1/2 62/1/2
f 63/2/2 64/2/2 65/2/2
f 65/2/2 64/2/2 66/2/2
f 65/3/2 66/3/2 67/3/2
f 67/3/2 66/3/2 68/3/2
f 65/3/2 67/3/2 69/3/2
f 67/2/2 68/2/2 70/2/2
f 69/3/2 67/3/2 70/3/2
f 68/3/2 66/3/2 71/3/2
f 70/2/2 68/2/2 71/2/2
f 71/3/2 66/3/2 72/3/2
f 69/2/2 70/2/2 73/2/2
f 65/3/2 69/3/2 73/3/2
f 71/2/2 72/2/2 73/2/2
f 70/2/2 71/2/2 73/2/2
f 73/2/2 72/2/2 74/2/2
f 74/2/2 72/2/2 75/2/2
f 72/3/2 66/3/2 76/3/2
f 75/2/2 72/2/2 76/2/2
f 74/2/2 75/2/2 77/2/2
f 73/3/2 74/3/2 77/3/2
f 77/2/2 75/2/2 78/2/2
f 78/2/2 75/2/2 79/2/2
f 75/3/2 76/3/2 80/3/2
f 79/2/2 75/2/2 80/2/2
f 78/2/2 79/2/2 81/2/2
f 77/3/2 78/3/2 81/3/2
f 81/2/2 79/2/2 82/2/2
f 82/2/2 79/2/2 83/2/2
f 79/3/2 80/3/2 84/3/2
f 83/2/2 79/2/2 84/2/2
f 82/2/2 83/2/2 85/2/2
f 81/3/2 82/3/2 85/3/2
f 85/2/2 83/2/2 86/2/2
f 86/2/2 83/2/2 87/2/2
f 83/3/2 84/3/2 88/3/2
f 87/2/2 83/2/2 88/2/2
f 86/2/2 87/2/2 89/2/2
f 85/3/2 86/3/2 89/3/2
f 89/2/2 87/2/2 90/2/2
f 90/2/2 87/2/2 91/2/2
f 87/3/2 88/3/2 92/3/2
f 91/2/2 87/2/2 92/2/2
f 90/2/2 91/2/2 93/2/2
f 89/3/2 90/3/2 93/3/2
f 91/3/2 92/3/2 94/3/2
f 93/2/2 91/2/2 94/2/2
f 63/2/2 65/2/2 95/2/2
f 65/3/2 73/3/2 95/3/2
f 93/3/2 94/3/2 95/3/2
f 89/3/2 93/3/2 95/3/2
f 85/3/2 89/3/2 95/3/2
f 73/3/2 77/3/2 95/3/2
f 81/3/2 85/3/2 95/3/2
f 77/3/2 81/3/2 95/3/2
f 94/3/2 92/3/2 96/3/2
f 95/3/2 94/3/2 96/3/2
f 66/2/2 64/2/2 96/2/2
f 84/3/2 80/3/2 96/3/2
f 88/3/2 84/3/2 96/3/2
f 80/3/2 76/3/2 96/3/2
f 92/3/2 88/3/2 96/3/2
f 76/3/2 66/3/2 96/3/2
f 63/2/2 95/2/2 97/2/2
f 95/2/2 96/2/2 97/2/2
f 96/2/2 64/2/2 98/2/2
f 97/2/2 96/2/2 98/2/2
f 101/2/3 100/2/3 99/2/3
f 102/2/3 100/2/3 101/2/3
f 107/1/3 104/1/3 103/1/3
f 108/1/3 104/1/3 107/1/3
f 109/1/3 106/1/3 105/1/3
f 110/1/3 106/1/3 109/1/3
f 113/1/3 112/1/3 111/1/3
f 114/1/3 112/1/3 113/1/3
f 117/1/3 116/1/3 115/1/3
f 118/1/3 116/1/3 117/1/3
f 119/1/3 116/1/3 118/1/3
f 120/1/3 116/1/3 119/1/3
f 121/1/3 117/1/3 115/1/3
f 122/1/3 117/1/3 121/1/3
f 123/1/3 117/1/3 122/1/3
f 124/1/3 117/1/3 123/1/3
f 125/1/3 119/1/3 118/1/3
f 126/1/3 119/1/3 125/1/3
f 127/1/3 116/1/3 120/1/3
f 128/1/3 116/1/3 127/1/3
f 129/1/4 130/1/4 131/1/4
f 131/1/4 130/1/4 132/1/4
f 132/1/4 130/1/4 133/1/4
f 133/1/4 130/1/4 134/1/4
f 129/1/4 131/1/4 135/1/4
f 135/1/4 131/1/4 136/1/4
f 136/1/4 131/1/4 137/1/4
f 137/1/4 131/1/4 138/1/4
f 132/1/4 133/1/4 139/1/4
f 139/1/4 133/1/4 140/1/4
f 134/1/4 130/1/4 141/1/4
f 141/1/4 130/1/4 142/1/4
f 143/1/4 144/1/4 145/1/4
f 145/1/4 144/1/4 146/1/4
f 147/1/4 148/1/4 151/1/4
f 151/1/4 148/1/4 152/1/4
f 149/1/4 150/1/4 153/1/4
f 153/1/4 150/1/4 154/1/4
f 155/2/4 156/2/4 157/2/4
f 157/2/4 156/2/4 158/2/4
f 161/1/5 160/1/5 159/1/5
f 162/1/5 160/1/5 161/1/5
f 165/2/5 164/2/5 163/2/5
f 166/2/5 164/2/5 165/2/5
f 167/2/5 164/2/5 166/2/5
f 168/2/5 164/2/5 167/2/5
f 171/1/5 170/1/5 169/1/5
f 172/1/5 170/1/5 171/1/5
f 175/1/5 174/1/5 173/1/5
f 176/1/5 174/1/5 175/1/5
f 179/1/5 178/1/5 177/1/5
f 180/1/5 178/1/5 179/1/5
f 183/1/5 182/1/5 181/1/5
f 184/1/5 182/1/5 183/1/5
f 185/1/6 186/1/6 187/1/6
f 187/1/6 186/1/6 188/1/6
f 185/1/6 187/1/6 189/1/6
f 188/1/6 186/1/6 190/1/6
f 185/1/6 189/1/6 191/1/6
f 189/1/6 190/1/6 191/1/6
f 190/1/6 186/1/6 192/1/6
f 191/1/6 190/1/6 192/1/6
f 193/1/6 194/1/6 195/1/6
f 195/1/6 194/1/6 196/1/6
f 197/1/6 198/1/6 199/1/6
f 199/1/6 198/1/6 200/1/6
f 201/1/6 202/1/6 203/1/6
f 203/1/6 202/1/6 204/1/6
f 205/1/6 206/1/6 207/1/6
f 207/1/6 206/1/6 208/1/6
f 209/1/6 210/1/6 211/1/6
f 211/1/6 210/1/6 212/1/6
f 213/2/6 214/2/6 215/2/6
f 215/2/6 214/2/6 216/2/6
